<svg width="1425" height="699" viewBox="0 0 1425 699" fill="none" xmlns="http://www.w3.org/2000/svg">
<path d="M52.151 529.969V581.757H117.733V607.772H52.151V679.041H19.481V504.075H129.833V529.969H52.151ZM170.336 576.433C174.208 569.012 178.806 563.204 184.13 559.009C189.454 554.734 195.746 552.596 203.006 552.596C208.733 552.596 213.331 553.846 216.8 556.347L214.864 578.732C214.461 580.184 213.856 581.233 213.049 581.878C212.323 582.443 211.315 582.725 210.024 582.725C208.814 582.725 206.999 582.523 204.579 582.12C202.24 581.717 199.941 581.515 197.682 581.515C194.375 581.515 191.43 581.999 188.849 582.967C186.268 583.935 183.928 585.347 181.831 587.202C179.814 588.977 177.999 591.155 176.386 593.736C174.853 596.317 173.401 599.262 172.03 602.569V679.041H142.143V554.895H159.688C162.753 554.895 164.891 555.46 166.101 556.589C167.311 557.638 168.118 559.574 168.521 562.397L170.336 576.433ZM263.396 554.895V679.041H233.388V554.895H263.396ZM267.51 518.716C267.51 521.297 266.986 523.717 265.937 525.976C264.889 528.235 263.477 530.211 261.702 531.905C260.008 533.599 257.992 534.97 255.652 536.019C253.313 536.987 250.812 537.471 248.15 537.471C245.569 537.471 243.109 536.987 240.769 536.019C238.511 534.97 236.534 533.599 234.84 531.905C233.146 530.211 231.775 528.235 230.726 525.976C229.758 523.717 229.274 521.297 229.274 518.716C229.274 516.054 229.758 513.553 230.726 511.214C231.775 508.875 233.146 506.858 234.84 505.164C236.534 503.47 238.511 502.139 240.769 501.171C243.109 500.122 245.569 499.598 248.15 499.598C250.812 499.598 253.313 500.122 255.652 501.171C257.992 502.139 260.008 503.47 261.702 505.164C263.477 506.858 264.889 508.875 265.937 511.214C266.986 513.553 267.51 516.054 267.51 518.716ZM382.801 581.152C381.913 582.281 381.026 583.169 380.139 583.814C379.332 584.459 378.122 584.782 376.509 584.782C374.976 584.782 373.484 584.338 372.032 583.451C370.58 582.483 368.845 581.434 366.829 580.305C364.812 579.095 362.392 578.046 359.569 577.159C356.826 576.191 353.398 575.707 349.284 575.707C344.04 575.707 339.442 576.675 335.49 578.611C331.537 580.466 328.23 583.169 325.568 586.718C322.986 590.267 321.05 594.583 319.76 599.665C318.469 604.666 317.824 610.353 317.824 616.726C317.824 623.341 318.509 629.229 319.881 634.392C321.333 639.555 323.39 643.911 326.052 647.46C328.714 650.929 331.94 653.591 335.732 655.446C339.523 657.221 343.798 658.108 348.558 658.108C353.317 658.108 357.149 657.543 360.053 656.414C363.037 655.204 365.538 653.913 367.555 652.542C369.571 651.09 371.306 649.799 372.758 648.67C374.29 647.46 375.984 646.855 377.84 646.855C380.26 646.855 382.075 647.783 383.285 649.638L391.876 660.528C388.568 664.4 384.979 667.667 381.107 670.329C377.235 672.91 373.201 675.008 369.007 676.621C364.893 678.154 360.617 679.243 356.181 679.888C351.825 680.533 347.469 680.856 343.113 680.856C335.449 680.856 328.23 679.444 321.454 676.621C314.678 673.717 308.749 669.522 303.667 664.037C298.585 658.552 294.551 651.856 291.567 643.951C288.663 635.965 287.211 626.89 287.211 616.726C287.211 607.611 288.501 599.181 291.083 591.437C293.745 583.612 297.617 576.877 302.699 571.23C307.781 565.503 314.073 561.026 321.575 557.799C329.077 554.572 337.708 552.959 347.469 552.959C356.745 552.959 364.852 554.451 371.79 557.436C378.808 560.421 385.1 564.696 390.666 570.262L382.801 581.152ZM535.847 679.041H505.96V577.28H448.364V644.556C448.364 648.428 449.291 651.453 451.147 653.631C453.083 655.809 455.704 656.898 459.012 656.898C460.867 656.898 462.4 656.696 463.61 656.293C464.9 655.809 465.989 655.325 466.877 654.841C467.845 654.357 468.692 653.913 469.418 653.51C470.144 653.026 470.87 652.784 471.596 652.784C472.483 652.784 473.209 653.026 473.774 653.51C474.338 653.913 474.943 654.559 475.589 655.446L484.543 669.966C480.187 673.596 475.185 676.339 469.539 678.194C463.892 680.049 458.044 680.977 451.994 680.977C441.184 680.977 432.876 677.952 427.068 671.902C421.34 665.771 418.477 657.342 418.477 646.613V577.28H405.772C404.158 577.28 402.787 576.756 401.658 575.707C400.528 574.658 399.964 573.085 399.964 570.988V559.13L419.929 555.742L426.221 521.983C426.624 520.37 427.39 519.119 428.52 518.232C429.649 517.345 431.101 516.901 432.876 516.901H448.364V555.984H535.847V679.041ZM541.05 518.232C541.05 520.813 540.525 523.274 539.477 525.613C538.428 527.872 537.016 529.848 535.242 531.542C533.548 533.236 531.491 534.607 529.071 535.656C526.731 536.624 524.231 537.108 521.569 537.108C518.987 537.108 516.567 536.624 514.309 535.656C512.05 534.607 510.074 533.236 508.38 531.542C506.686 529.848 505.314 527.872 504.266 525.613C503.298 523.274 502.814 520.813 502.814 518.232C502.814 515.57 503.298 513.11 504.266 510.851C505.314 508.512 506.686 506.495 508.38 504.801C510.074 503.026 512.05 501.655 514.309 500.687C516.567 499.638 518.987 499.114 521.569 499.114C524.231 499.114 526.731 499.638 529.071 500.687C531.491 501.655 533.548 503.026 535.242 504.801C537.016 506.495 538.428 508.512 539.477 510.851C540.525 513.11 541.05 515.57 541.05 518.232ZM621.286 552.959C630.482 552.959 638.831 554.451 646.333 557.436C653.916 560.421 660.369 564.656 665.693 570.141C671.098 575.626 675.252 582.322 678.156 590.227C681.06 598.132 682.512 606.965 682.512 616.726C682.512 626.567 681.06 635.441 678.156 643.346C675.252 651.251 671.098 657.987 665.693 663.553C660.369 669.119 653.916 673.394 646.333 676.379C638.831 679.364 630.482 680.856 621.286 680.856C612.009 680.856 603.58 679.364 595.997 676.379C588.414 673.394 581.921 669.119 576.516 663.553C571.192 657.987 567.038 651.251 564.053 643.346C561.149 635.441 559.697 626.567 559.697 616.726C559.697 606.965 561.149 598.132 564.053 590.227C567.038 582.322 571.192 575.626 576.516 570.141C581.921 564.656 588.414 560.421 595.997 557.436C603.58 554.451 612.009 552.959 621.286 552.959ZM621.286 657.866C631.611 657.866 639.234 654.397 644.155 647.46C649.156 640.523 651.657 630.359 651.657 616.968C651.657 603.577 649.156 593.373 644.155 586.355C639.234 579.337 631.611 575.828 621.286 575.828C610.799 575.828 603.015 579.377 597.933 586.476C592.932 593.494 590.431 603.658 590.431 616.968C590.431 630.278 592.932 640.442 597.933 647.46C603.015 654.397 610.799 657.866 621.286 657.866ZM733.264 570.141C735.764 567.64 738.386 565.341 741.129 563.244C743.952 561.066 746.896 559.251 749.962 557.799C753.108 556.266 756.455 555.097 760.005 554.29C763.554 553.403 767.426 552.959 771.621 552.959C778.397 552.959 784.406 554.129 789.65 556.468C794.893 558.727 799.249 561.953 802.718 566.148C806.267 570.262 808.929 575.223 810.704 581.031C812.559 586.758 813.487 593.091 813.487 600.028V679.041H783.6V600.028C783.6 592.445 781.865 586.597 778.397 582.483C774.928 578.288 769.644 576.191 762.546 576.191C757.383 576.191 752.543 577.361 748.026 579.7C743.508 582.039 739.233 585.226 735.2 589.259V679.041H705.313V554.895H723.584C727.456 554.895 729.997 556.71 731.207 560.34L733.264 570.141Z" fill="#F27329"/>
<path d="M946.517 652.179V679.041H844.03V504.075H876.579V652.179H946.517ZM1038.64 602.69C1038.64 598.818 1038.07 595.188 1036.94 591.8C1035.89 588.331 1034.28 585.306 1032.1 582.725C1029.93 580.144 1027.14 578.127 1023.75 576.675C1020.45 575.142 1016.58 574.376 1012.14 574.376C1003.51 574.376 996.691 576.836 991.69 581.757C986.769 586.678 983.623 593.655 982.252 602.69H1038.64ZM981.647 620.719C982.131 627.092 983.26 632.617 985.035 637.296C986.809 641.894 989.149 645.726 992.053 648.791C994.957 651.776 998.385 654.034 1002.34 655.567C1006.37 657.019 1010.81 657.745 1015.65 657.745C1020.49 657.745 1024.64 657.18 1028.11 656.051C1031.66 654.922 1034.73 653.671 1037.31 652.3C1039.97 650.929 1042.27 649.678 1044.2 648.549C1046.22 647.42 1048.16 646.855 1050.01 646.855C1052.51 646.855 1054.37 647.783 1055.58 649.638L1064.17 660.528C1060.86 664.4 1057.15 667.667 1053.04 670.329C1048.92 672.91 1044.61 675.008 1040.09 676.621C1035.65 678.154 1031.1 679.243 1026.42 679.888C1021.82 680.533 1017.34 680.856 1012.99 680.856C1004.35 680.856 996.328 679.444 988.907 676.621C981.485 673.717 975.032 669.482 969.547 663.916C964.061 658.269 959.746 651.332 956.6 643.104C953.454 634.795 951.881 625.196 951.881 614.306C951.881 605.836 953.252 597.89 955.995 590.469C958.737 582.967 962.65 576.473 967.732 570.988C972.894 565.422 979.146 561.026 986.487 557.799C993.908 554.572 1002.26 552.959 1011.53 552.959C1019.36 552.959 1026.58 554.209 1033.19 556.71C1039.81 559.211 1045.49 562.881 1050.25 567.721C1055.01 572.48 1058.72 578.369 1061.39 585.387C1064.13 592.324 1065.5 600.27 1065.5 609.224C1065.5 613.741 1065.02 616.807 1064.05 618.42C1063.08 619.953 1061.22 620.719 1058.48 620.719H981.647ZM1153.51 626.043C1144.88 626.446 1137.62 627.213 1131.73 628.342C1125.84 629.391 1121.12 630.762 1117.57 632.456C1114.02 634.15 1111.48 636.126 1109.95 638.385C1108.42 640.644 1107.65 643.104 1107.65 645.766C1107.65 651.009 1109.18 654.76 1112.25 657.019C1115.4 659.278 1119.47 660.407 1124.47 660.407C1130.6 660.407 1135.88 659.318 1140.32 657.14C1144.84 654.881 1149.23 651.493 1153.51 646.976V626.043ZM1085.02 572.198C1099.3 559.13 1116.48 552.596 1136.57 552.596C1143.83 552.596 1150.32 553.806 1156.05 556.226C1161.78 558.565 1166.62 561.873 1170.57 566.148C1174.52 570.343 1177.51 575.384 1179.53 581.273C1181.62 587.162 1182.67 593.615 1182.67 600.633V679.041H1169.12C1166.3 679.041 1164.12 678.638 1162.59 677.831C1161.05 676.944 1159.84 675.209 1158.96 672.628L1156.29 663.674C1153.15 666.497 1150.08 668.998 1147.1 671.176C1144.11 673.273 1141.01 675.048 1137.78 676.5C1134.55 677.952 1131.08 679.041 1127.37 679.767C1123.74 680.574 1119.71 680.977 1115.27 680.977C1110.03 680.977 1105.19 680.291 1100.75 678.92C1096.32 677.468 1092.49 675.33 1089.26 672.507C1086.03 669.684 1083.53 666.175 1081.76 661.98C1079.98 657.785 1079.1 652.905 1079.1 647.339C1079.1 644.193 1079.62 641.087 1080.67 638.022C1081.72 634.876 1083.41 631.891 1085.75 629.068C1088.17 626.245 1091.28 623.583 1095.07 621.082C1098.86 618.581 1103.5 616.403 1108.98 614.548C1114.55 612.693 1121 611.2 1128.34 610.071C1135.68 608.861 1144.07 608.135 1153.51 607.893V600.633C1153.51 592.324 1151.74 586.194 1148.19 582.241C1144.64 578.208 1139.51 576.191 1132.82 576.191C1127.98 576.191 1123.95 576.756 1120.72 577.885C1117.57 579.014 1114.79 580.305 1112.37 581.757C1109.95 583.128 1107.73 584.379 1105.72 585.508C1103.78 586.637 1101.6 587.202 1099.18 587.202C1097.08 587.202 1095.31 586.678 1093.86 585.629C1092.41 584.5 1091.24 583.209 1090.35 581.757L1085.02 572.198ZM1239.01 576.433C1242.88 569.012 1247.48 563.204 1252.81 559.009C1258.13 554.734 1264.42 552.596 1271.68 552.596C1277.41 552.596 1282.01 553.846 1285.48 556.347L1283.54 578.732C1283.14 580.184 1282.53 581.233 1281.72 581.878C1281 582.443 1279.99 582.725 1278.7 582.725C1277.49 582.725 1275.67 582.523 1273.25 582.12C1270.92 581.717 1268.62 581.515 1266.36 581.515C1263.05 581.515 1260.11 581.999 1257.52 582.967C1254.94 583.935 1252.6 585.347 1250.51 587.202C1248.49 588.977 1246.67 591.155 1245.06 593.736C1243.53 596.317 1242.08 599.262 1240.71 602.569V679.041H1210.82V554.895H1228.36C1231.43 554.895 1233.57 555.46 1234.78 556.589C1235.99 557.638 1236.79 559.574 1237.2 562.397L1239.01 576.433ZM1329.05 570.141C1331.55 567.64 1334.17 565.341 1336.91 563.244C1339.74 561.066 1342.68 559.251 1345.74 557.799C1348.89 556.266 1352.24 555.097 1355.79 554.29C1359.34 553.403 1363.21 552.959 1367.4 552.959C1374.18 552.959 1380.19 554.129 1385.43 556.468C1390.68 558.727 1395.03 561.953 1398.5 566.148C1402.05 570.262 1404.71 575.223 1406.49 581.031C1408.34 586.758 1409.27 593.091 1409.27 600.028V679.041H1379.38V600.028C1379.38 592.445 1377.65 586.597 1374.18 582.483C1370.71 578.288 1365.43 576.191 1358.33 576.191C1353.17 576.191 1348.33 577.361 1343.81 579.7C1339.29 582.039 1335.02 585.226 1330.98 589.259V679.041H1301.1V554.895H1319.37C1323.24 554.895 1325.78 556.71 1326.99 560.34L1329.05 570.141Z" fill="#022956"/>
<path d="M495.849 24H679.846V95.5907H563.117C540.035 95.5907 491.497 110.307 482 169.17V409.794C504.423 411.783 552.038 402.635 563.117 350.135V250.704H679.846V191.045H553.225V151.272" stroke="#022956" stroke-width="23.5"/>
<path d="M821.964 263.006V24H745.783V238.905C744.446 265.015 755.406 316.03 809.936 311.209H948.264C954.279 335.311 953.878 385.924 904.16 395.565H733.755" stroke="#F27329" stroke-width="23.5"/>
</svg>
