<svg width="31" height="26" viewBox="0 0 31 26" fill="none" xmlns="http://www.w3.org/2000/svg">
<path fill-rule="evenodd" clip-rule="evenodd" d="M4.95096 3.055C3.79233 3.77867 2.58333 5.23683 2.58333 8.34925C2.58333 13.0011 5.42112 16.887 8.59992 19.656C9.97084 20.8564 11.5006 21.9217 13.1595 22.8312C13.8325 23.1931 14.415 23.4596 14.8645 23.6297C15.2275 23.7672 15.4251 23.8117 15.4884 23.8247L15.5 23.8279L15.5129 23.8257C15.5749 23.8117 15.7712 23.7672 16.1355 23.6297C16.7253 23.3971 17.295 23.1303 17.8405 22.8312C19.4994 21.9217 21.0292 20.8564 22.4001 19.656C25.5776 16.8881 28.4167 13.0022 28.4167 8.35033C28.4167 5.23792 27.2077 3.77867 26.049 3.05392C24.822 2.28583 23.3766 2.16667 22.6042 2.16667C20.1242 2.16667 18.8622 2.98567 18.113 3.75267C17.7126 4.16108 17.4414 4.576 17.1985 4.94758L17.1792 4.97792C17.0758 5.13717 16.9428 5.33975 16.8085 5.50008C16.7361 5.58675 16.6173 5.71783 16.4481 5.83592C16.2776 5.95508 15.9534 6.13058 15.5 6.13058C15.0466 6.13058 14.7224 5.954 14.5519 5.83592C14.4143 5.73781 14.2927 5.62489 14.1902 5.50008C14.0562 5.33164 13.9328 5.15734 13.8208 4.97792L13.8015 4.94758C13.5586 4.57492 13.2861 4.16108 12.887 3.75267C12.1378 2.98567 10.8758 2.16667 8.39583 2.16667C7.62342 2.16667 6.17933 2.28583 4.95096 3.055ZM3.40483 1.31733C5.28421 0.140834 7.39221 0 8.39583 0C11.7283 0 13.6955 1.16242 14.8839 2.379C15.1215 2.62167 15.3256 2.86433 15.5 3.09075C15.6891 2.84386 15.8948 2.60623 16.1161 2.379C17.3045 1.16242 19.2717 0 22.6042 0C23.6078 0 25.7158 0.140833 27.5952 1.31842C29.5456 2.54042 31 4.71467 31 8.35033C31 13.7648 27.7024 18.1621 24.2614 21.1597C22.7509 22.4818 21.0651 23.6547 19.2368 24.6556C18.485 25.0597 17.7901 25.3814 17.1985 25.6046C16.669 25.805 16.0438 26 15.5 26C14.9575 26 14.331 25.805 13.8015 25.6046C13.0964 25.3294 12.4156 25.0123 11.7645 24.6556C9.93621 23.6547 8.25039 22.4818 6.73992 21.1597C3.29633 18.1621 0 13.7648 0 8.35033C0 4.71467 1.45442 2.53933 3.40483 1.31733Z" fill="#241443" fill-opacity="0.6"/>
</svg>
