<svg width="28" height="31" viewBox="0 0 28 31" fill="none" xmlns="http://www.w3.org/2000/svg">
<path d="M8.14131 7.3778C8.19474 6.45753 8.17203 5.63408 8.3016 4.83514C8.7758 1.90657 11.3872 -0.103041 14.5102 0.00408588C17.4382 0.10476 19.8773 2.37637 20.1204 5.26106C20.1765 5.93996 20.1284 6.62662 20.1284 7.38038C21.2331 7.38038 22.2282 7.38038 23.222 7.38038C24.8824 7.39071 25.6838 8.13672 25.8575 9.74363C26.1834 12.7755 26.5494 15.8034 26.878 18.8353C27.228 22.0594 27.5637 25.2861 27.8851 28.5154C28.0267 29.9726 27.0236 30.9897 25.5008 30.991C17.8425 30.9961 10.1841 30.9991 2.52579 31C0.7893 31 -0.156417 30.001 0.0212389 28.3373C0.460703 24.2368 0.916197 20.1376 1.357 16.0383C1.5912 13.8811 1.81873 11.724 2.03957 9.56681C2.17315 8.25676 3.02135 7.45137 4.38917 7.39845C5.01163 7.37522 5.63543 7.38425 6.25923 7.38167C6.88303 7.37909 7.49347 7.3778 8.14131 7.3778ZM8.19608 9.38482C6.90707 9.38482 5.7089 9.36933 4.51072 9.40418C4.35845 9.40418 4.10999 9.66232 4.08328 9.8314C3.9497 10.6807 3.8749 11.5377 3.78407 12.3921C3.55165 14.5863 3.32991 16.7947 3.08948 18.994C2.75197 22.0917 2.40379 25.1863 2.04491 28.2779C1.97412 28.8755 2.15979 29.064 2.78893 29.0523C5.19329 29.0201 7.59766 29.0369 10.002 29.0356C15.0565 29.0356 20.1097 29.024 25.1629 29.0356C25.7413 29.0356 25.8975 28.8394 25.8308 28.3167C25.6611 26.9098 25.5249 25.4991 25.3713 24.0909C25.0364 21.0165 24.6998 17.9425 24.3614 14.869C24.1784 13.1807 24.0128 11.4912 23.8111 9.80558C23.7924 9.64812 23.58 9.39127 23.4504 9.3874C22.3912 9.35255 21.3293 9.36804 20.1792 9.36804C20.1792 10.1166 20.1471 10.7801 20.1939 11.4331C20.2178 11.7382 20.3298 12.0306 20.5171 12.2773C21.1382 13.0426 21.1222 14.0184 20.4236 14.665C20.0851 14.9657 19.6408 15.1306 19.181 15.126C18.7212 15.1214 18.2805 14.9478 17.9485 14.6405C17.2619 13.9952 17.2525 12.9897 17.9151 12.2527C18.0379 12.1159 18.1982 11.9455 18.2049 11.7855C18.2343 10.9982 18.2183 10.2096 18.2183 9.40676H10.1663C10.1663 10.1076 10.1316 10.7517 10.1824 11.388C10.2071 11.6914 10.3257 11.9806 10.523 12.2179C11.1695 12.951 11.2002 13.9371 10.539 14.6108C10.2283 14.9245 9.80584 15.1123 9.35718 15.1363C8.90851 15.1603 8.4672 15.0186 8.12261 14.7399C7.37726 14.1229 7.29845 13.0943 7.91958 12.3069C8.0617 12.1519 8.15447 11.9605 8.18673 11.7558C8.21344 10.9995 8.19608 10.2263 8.19608 9.38482ZM18.2143 7.36231C18.2143 6.68986 18.2463 6.07162 18.2143 5.45467C18.0807 3.35471 16.0156 1.69231 13.869 1.90398C11.3031 2.16212 9.61332 4.28789 10.2625 7.36231H18.2143Z" fill="#241443" fill-opacity="0.6"/>
<path d="M8.61313 7.8778H8.14131C7.49416 7.8778 6.88441 7.87909 6.2613 7.88167C6.09061 7.88237 5.92211 7.88224 5.75511 7.88211C5.29975 7.88175 4.85551 7.88141 4.40826 7.89809C3.81962 7.92091 3.38769 8.1024 3.09202 8.37735C2.79669 8.652 2.59381 9.06027 2.53699 9.61753L2.53697 9.61773C2.31602 11.7759 2.08839 13.9341 1.85408 16.0923C1.64381 18.0477 1.43071 19.9984 1.21765 21.9488C0.983246 24.0946 0.748886 26.2399 0.518392 28.3906C0.440638 29.1191 0.614117 29.6254 0.919612 29.9496C1.22871 30.2777 1.74888 30.5 2.52573 30.5L8.61313 7.8778ZM8.61313 7.8778L8.64047 7.40678M8.61313 7.8778L8.64047 7.40678M8.64047 7.40678C8.65956 7.07808 8.66924 6.77572 8.67839 6.49005C8.69651 5.9247 8.71252 5.4247 8.79515 4.91518L8.79517 4.91506M8.64047 7.40678L8.79517 4.91506M8.79517 4.91506C9.22516 2.25948 11.5962 0.404421 14.4931 0.503792C17.1753 0.596015 19.4005 2.67789 19.6221 5.30224C19.658 5.73663 19.6489 6.15771 19.6388 6.62696C19.6338 6.86327 19.6284 7.11179 19.6284 7.38038V7.88038H20.1284H20.1349H20.1413H20.1478H20.1543H20.1607H20.1672H20.1737H20.1801H20.1866H20.193H20.1995H20.2059H20.2123H20.2188H20.2252H20.2317H20.2381H20.2445H20.2509H20.2574H20.2638H20.2702H20.2766H20.283H20.2895H20.2959H20.3023H20.3087H20.3151H20.3215H20.3279H20.3343H20.3407H20.3471H20.3535H20.3598H20.3662H20.3726H20.379H20.3854H20.3917H20.3981H20.4045H20.4108H20.4172H20.4236H20.4299H20.4363H20.4427H20.449H20.4554H20.4617H20.4681H20.4744H20.4807H20.4871H20.4934H20.4998H20.5061H20.5124H20.5188H20.5251H20.5314H20.5377H20.5441H20.5504H20.5567H20.563H20.5693H20.5756H20.5819H20.5882H20.5945H20.6009H20.6071H20.6134H20.6197H20.626H20.6323H20.6386H20.6449H20.6512H20.6575H20.6637H20.67H20.6763H20.6826H20.6888H20.6951H20.7014H20.7077H20.7139H20.7202H20.7264H20.7327H20.7389H20.7452H20.7515H20.7577H20.7639H20.7702H20.7764H20.7827H20.7889H20.7952H20.8014H20.8076H20.8139H20.8201H20.8263H20.8325H20.8388H20.845H20.8512H20.8574H20.8636H20.8698H20.8761H20.8823H20.8885H20.8947H20.9009H20.9071H20.9133H20.9195H20.9257H20.9319H20.9381H20.9443H20.9504H20.9566H20.9628H20.969H20.9752H20.9814H20.9875H20.9937H20.9999H21.0061H21.0122H21.0184H21.0246H21.0307H21.0369H21.0431H21.0492H21.0554H21.0615H21.0677H21.0738H21.08H21.0861H21.0923H21.0984H21.1046H21.1107H21.1168H21.123H21.1291H21.1353H21.1414H21.1475H21.1536H21.1598H21.1659H21.172H21.1781H21.1843H21.1904H21.1965H21.2026H21.2087H21.2148H21.221H21.2271H21.2332H21.2393H21.2454H21.2515H21.2576H21.2637H21.2698H21.2759H21.282H21.2881H21.2941H21.3002H21.3063H21.3124H21.3185H21.3246H21.3307H21.3367H21.3428H21.3489H21.355H21.361H21.3671H21.3732H21.3793H21.3853H21.3914H21.3975H21.4035H21.4096H21.4156H21.4217H21.4277H21.4338H21.4399H21.4459H21.452H21.458H21.4641H21.4701H21.4761H21.4822H21.4882H21.4943H21.5003H21.5064H21.5124H21.5184H21.5245H21.5305H21.5365H21.5425H21.5486H21.5546H21.5606H21.5666H21.5727H21.5787H21.5847H21.5907H21.5967H21.6028H21.6088H21.6148H21.6208H21.6268H21.6328H21.6388H21.6448H21.6508H21.6568H21.6628H21.6688H21.6748H21.6808H21.6868H21.6928H21.6988H21.7048H21.7108H21.7168H21.7228H21.7288H21.7348H21.7407H21.7467H21.7527H21.7587H21.7647H21.7706H21.7766H21.7826H21.7886H21.7945H21.8005H21.8065H21.8125H21.8184H21.8244H21.8304H21.8363H21.8423H21.8483H21.8542H21.8602H21.8661H21.8721H21.8781H21.884H21.89H21.8959H21.9019H21.9078H21.9138H21.9197H21.9257H21.9316H21.9376H21.9435H21.9495H21.9554H21.9613H21.9673H21.9732H21.9792H21.9851H21.991H21.997H22.0029H22.0088H22.0148H22.0207H22.0266H22.0326H22.0385H22.0444H22.0503H22.0563H22.0622H22.0681H22.074H22.08H22.0859H22.0918H22.0977H22.1036H22.1096H22.1155H22.1214H22.1273H22.1332H22.1391H22.145H22.1509H22.1569H22.1628H22.1687H22.1746H22.1805H22.1864H22.1923H22.1982H22.2041H22.21H22.2159H22.2218H22.2277H22.2336H22.2395H22.2454H22.2513H22.2572H22.2631H22.269H22.2749H22.2807H22.2866H22.2925H22.2984H22.3043H22.3102H22.3161H22.322H22.3278H22.3337H22.3396H22.3455H22.3514H22.3573H22.3631H22.369H22.3749H22.3808H22.3867H22.3925H22.3984H22.4043H22.4102H22.416H22.4219H22.4278H22.4336H22.4395H22.4454H22.4513H22.4571H22.463H22.4689H22.4747H22.4806H22.4865H22.4923H22.4982H22.5041H22.5099H22.5158H22.5216H22.5275H22.5334H22.5392H22.5451H22.5509H22.5568H22.5627H22.5685H22.5744H22.5802H22.5861H22.5919H22.5978H22.6036H22.6095H22.6154H22.6212H22.6271H22.6329H22.6388H22.6446H22.6505H22.6563H22.6622H22.668H22.6738H22.6797H22.6855H22.6914H22.6972H22.7031H22.7089H22.7148H22.7206H22.7265H22.7323H22.7381H22.744H22.7498H22.7557H22.7615H22.7673H22.7732H22.779H22.7849H22.7907H22.7965H22.8024H22.8082H22.8141H22.8199H22.8257H22.8316H22.8374H22.8432H22.8491H22.8549H22.8607H22.8666H22.8724H22.8782H22.8841H22.8899H22.8957H22.9016H22.9074H22.9132H22.9191H22.9249H22.9307H22.9366H22.9424H22.9482H22.9541H22.9599H22.9657H22.9715H22.9774H22.9832H22.989H22.9949H23.0007H23.0065H23.0123H23.0182H23.024H23.0298H23.0356H23.0415H23.0473H23.0531H23.0589H23.0648H23.0706H23.0764H23.0822H23.0881H23.0939H23.0997H23.1055H23.1114H23.1172H23.123H23.1288H23.1347H23.1405H23.1463H23.1521H23.158H23.1638H23.1696H23.1754H23.1813H23.1871H23.1929H23.1987H23.2046H23.2104H23.2162H23.2204M8.79517 4.91506L23.2204 7.88038M23.2204 7.88038C23.9815 7.88534 24.4573 8.05855 24.7618 8.33407C25.0666 8.60982 25.2808 9.06116 25.3604 9.79735C25.5275 11.3524 25.708 12.9302 25.8882 14.506C26.0563 15.9755 26.2242 17.4432 26.3809 18.8891L26.3809 18.8892C26.7307 22.1118 27.0663 25.337 27.3876 28.5648C27.4455 29.1628 27.2686 29.631 26.9582 29.951C26.6443 30.2747 26.1506 30.4904 25.5004 30.491C17.8422 30.4961 10.184 30.4991 2.52579 30.5L23.2204 7.88038ZM8.69608 8.88482V9.38482C8.69608 9.61979 8.69749 9.8522 8.69889 10.0822C8.70241 10.6608 8.70583 11.2239 8.68642 11.7735L8.68535 11.8037L8.68064 11.8336C8.63395 12.1299 8.50201 12.4053 8.30252 12.6289C7.84665 13.2179 7.92598 13.9262 8.43921 14.3529C8.68591 14.5515 9.00437 14.6544 9.33051 14.637C9.65715 14.6196 9.9614 14.483 10.1829 14.2598C10.6345 13.7989 10.6457 13.113 10.148 12.5486L10.1431 12.5431L10.1384 12.5375C9.87644 12.2222 9.71717 11.8359 9.684 11.4285L9.68393 11.4277C9.64612 10.9536 9.65341 10.4632 9.66062 9.97909C9.66348 9.78685 9.66632 9.5956 9.66632 9.40676V8.90676H10.1663H18.2183H18.7183V9.40676C18.7183 9.61105 18.7193 9.81661 18.7204 10.023C18.7235 10.6139 18.7267 11.2114 18.7046 11.8042L18.7045 11.8064C18.695 12.0337 18.584 12.2143 18.512 12.3162C18.4427 12.4145 18.3591 12.507 18.3044 12.5675C18.2983 12.5744 18.2924 12.5808 18.287 12.5869L18.2869 12.587C17.7879 13.142 17.822 13.8342 18.2895 14.2749C18.5286 14.4955 18.8488 14.6227 19.186 14.626C19.522 14.6294 19.8441 14.5093 20.0877 14.2946C20.5641 13.8504 20.6053 13.1795 20.1289 12.5923L20.1238 12.5861L20.119 12.5797C19.8744 12.2577 19.7269 11.8741 19.6954 11.4722L19.6951 11.4688C19.6607 10.9872 19.6672 10.4894 19.6738 9.98425C19.6765 9.77986 19.6792 9.57426 19.6792 9.36804V8.86804H20.1792C20.4496 8.86804 20.7165 8.86716 20.9806 8.86629C21.83 8.86351 22.6505 8.86081 23.4669 8.88767C23.6435 8.89339 23.7783 8.97517 23.8469 9.02356C23.9278 9.08059 23.9975 9.14936 24.0535 9.21531C24.1497 9.32865 24.2812 9.52391 24.3076 9.74662M8.69608 8.88482L23.8111 9.80558M8.69608 8.88482H8.19608M8.69608 8.88482H8.19608M24.3076 9.74662L23.8111 9.80558M24.3076 9.74662C24.3076 9.74647 24.3076 9.74632 24.3075 9.74618L23.8111 9.80558M24.3076 9.74662C24.4443 10.8892 24.5648 12.0363 24.6849 13.1793C24.7422 13.7255 24.7995 14.2708 24.8584 14.8142M23.8111 9.80558C23.9474 10.9448 24.0672 12.0857 24.1871 13.2268C24.2446 13.7742 24.3021 14.3217 24.3614 14.869M24.8584 14.8142L24.3614 14.869M24.8584 14.8142C25.1968 17.888 25.5335 20.9621 25.8683 24.0367L24.3614 14.869M24.8584 14.8142C24.8585 14.8145 24.8585 14.8148 24.8585 14.8151L24.3614 14.869M8.19608 8.88482C7.89241 8.88482 7.59261 8.88394 7.2958 8.88308C6.34279 8.88029 5.42069 8.8776 4.50085 8.90426C4.33833 8.90677 4.20637 8.97071 4.12783 9.01744C4.03854 9.07055 3.95932 9.13698 3.89392 9.2033C3.78187 9.3169 3.62693 9.5159 3.58941 9.75336L3.58935 9.75371M8.19608 8.88482L3.58935 9.75371M3.58935 9.75371C3.48215 10.4353 3.41171 11.1247 3.34293 11.7979C3.32435 11.9797 3.3059 12.1603 3.28687 12.3393L3.28685 12.3395M3.58935 9.75371L3.28685 12.3395M3.28685 12.3395C3.19773 13.1808 3.11033 14.0228 3.02291 14.865C2.88189 16.2234 2.74083 17.5823 2.59244 18.9397L2.59242 18.9398M3.28685 12.3395L2.59242 18.9398M2.59242 18.9398C2.25506 22.0361 1.90703 25.1294 1.54832 28.2197M2.59242 18.9398L1.54832 28.2197M1.54832 28.2197C1.51108 28.5345 1.50782 28.9437 1.79475 29.2409C2.071 29.527 2.47561 29.5581 2.79688 29.5523L1.54832 28.2197ZM26.0231 25.4935C25.9723 25.0094 25.9215 24.5242 25.8683 24.0368L10.002 29.5356C10.0021 29.5356 10.0022 29.5356 10.0023 29.5356C11.688 29.5356 13.3731 29.5343 15.058 29.533C18.4265 29.5304 21.7938 29.5278 25.1617 29.5356H25.1629C25.4701 29.5356 25.8531 29.4924 26.1103 29.2067C26.3711 28.9172 26.3626 28.5356 26.327 28.2553C26.216 27.3349 26.1198 26.4163 26.0231 25.4935ZM18.2143 7.86231H18.7143V7.36231C18.7143 7.15265 18.7178 6.93983 18.7213 6.72608C18.7284 6.29125 18.7356 5.85255 18.7136 5.42872L18.7136 5.42872L18.7133 5.42293C18.5604 3.02 16.2272 1.16902 13.82 1.40639L13.819 1.40649C12.4078 1.54846 11.2048 2.21009 10.4501 3.29076C9.69552 4.37136 9.42539 5.81802 9.77329 7.46561L9.85705 7.86231H10.2625H18.2143Z" stroke="#241443" stroke-opacity="0.6"/>
<path d="M8 22L20 22" stroke="#241443" stroke-opacity="0.6" stroke-width="2"/>
</svg>
